<svg xmlns="http://www.w3.org/2000/svg" xmlns:xlink="http://www.w3.org/1999/xlink" version="1.2" width="189.79mm" height="35.15mm" viewBox="0 0 108.0000 20.0000">
<style type="text/css">
<![CDATA[
tspan { white-space: pre; }
]]>
</style>
<!-- Page: 1/1 -->
<g transform="translate(5.1215, 11.9367)">
<rect x="75.4990" y="-0.1000" width="1.9740" height="0.2000" ry="0.1000" fill="currentColor"/>
</g>
<g transform="translate(5.1215, 10.9367)">
<line stroke-linejoin="round" stroke-linecap="round" stroke-width="0.1000" stroke="currentColor" x1="0.0500" y1="0" x2="97.7070" y2="0"/>
</g>
<g transform="translate(5.1215, 9.9367)">
<line stroke-linejoin="round" stroke-linecap="round" stroke-width="0.1000" stroke="currentColor" x1="0.0500" y1="0" x2="97.7070" y2="0"/>
</g>
<g transform="translate(5.1215, 8.9367)">
<line stroke-linejoin="round" stroke-linecap="round" stroke-width="0.1000" stroke="currentColor" x1="0.0500" y1="0" x2="97.7070" y2="0"/>
</g>
<g transform="translate(5.1215, 7.9367)">
<line stroke-linejoin="round" stroke-linecap="round" stroke-width="0.1000" stroke="currentColor" x1="0.0500" y1="0" x2="97.7070" y2="0"/>
</g>
<g transform="translate(5.1215, 6.9367)">
<line stroke-linejoin="round" stroke-linecap="round" stroke-width="0.1000" stroke="currentColor" x1="0.0500" y1="0" x2="97.7070" y2="0"/>
</g>
<g transform="translate(90.3992, 8.9367)">
<rect x="0.0000" y="-2.0000" width="0.4000" height="4.0000" ry="0.0000" fill="currentColor"/>
</g>
<g transform="translate(43.5135, 8.9367)">
<rect x="0.0000" y="-2.0000" width="0.4000" height="4.0000" ry="0.0000" fill="currentColor"/>
</g>
<g transform="translate(75.3976, 8.9367)">
<rect x="0.0000" y="-2.0000" width="0.4000" height="4.0000" ry="0.0000" fill="currentColor"/>
</g>
<g transform="translate(60.7160, 8.9367)">
<rect x="-0.1000" y="-2.8299" width="0.2000" height="3.6579" ry="0.0400" fill="currentColor"/>
</g>
<g transform="translate(63.9819, 8.9367)">
<rect x="-0.1000" y="-3.4801" width="0.2000" height="3.3081" ry="0.0400" fill="currentColor"/>
</g>
<a style="color:inherit;" xlink:href="textedit:///home/manu/projects/bebopshed/master/bebopshed/tmp/-:10:21:22">
<g transform="translate(62.7659, 8.9367)">
<path transform="scale(0.0040, -0.0040)" d="M106 -135c-30 0 -53 5 -71 16c-23 12 -35 32 -35 62c0 42 23 83 71 127s93 65 136 65c82 0 122 -32 122 -92c0 -43 -27 -82 -81 -123c-50 -37 -97 -55 -142 -55z" fill="currentColor"/>
</g>
</a>
<g transform="translate(61.4879, 8.9367)">
<path transform="scale(0.0040, -0.0040)" d="M148 77c0 17 -7 32 -22 32c-25 0 -47 -39 -60 -62c-10 -17 -17 -29 -18 -37v-112c0 -6 -1 -6 0 -6s3 -1 6 2c9 8 18 23 27 33c39 46 58 91 65 134c1 7 2 11 2 16zM174 230c44 0 58 -43 58 -95c0 -10 0 -23 -2 -35c-12 -90 -56 -183 -137 -288c-15 -17 -36 -44 -58 -69
s-33 -39 -35 -39c-1 0 -2 4 -2 6c0 12 1 49 2 140c1 85 4 220 4 406l2 278c14 15 25 24 53 25v-52c-3 -163 -4 -270 -4 -318c0 -21 -1 -33 0 -33s8 7 11 14c21 33 60 60 108 60z" fill="currentColor"/>
</g>
<a style="color:inherit;" xlink:href="textedit:///home/manu/projects/bebopshed/master/bebopshed/tmp/-:10:26:27">
<g transform="translate(66.0318, 9.4367)">
<path transform="scale(0.0040, -0.0040)" d="M106 -135c-30 0 -53 5 -71 16c-23 12 -35 32 -35 62c0 42 23 83 71 127s93 65 136 65c82 0 122 -32 122 -92c0 -43 -27 -82 -81 -123c-50 -37 -97 -55 -142 -55z" fill="currentColor"/>
</g>
</a>
<g transform="translate(67.2478, 8.9367)">
<rect x="-0.1000" y="-2.9973" width="0.2000" height="3.3253" ry="0.0400" fill="currentColor"/>
</g>
<a style="color:inherit;" xlink:href="textedit:///home/manu/projects/bebopshed/master/bebopshed/tmp/-:10:30:31">
<g transform="translate(68.3228, 8.9367)">
<path transform="scale(0.0040, -0.0040)" d="M106 -135c-30 0 -53 5 -71 16c-23 12 -35 32 -35 62c0 42 23 83 71 127s93 65 136 65c82 0 122 -32 122 -92c0 -43 -27 -82 -81 -123c-50 -37 -97 -55 -142 -55z" fill="currentColor"/>
</g>
</a>
<g transform="translate(69.5388, 8.9367)">
<rect x="-0.1000" y="-2.9358" width="0.2000" height="2.7638" ry="0.0400" fill="currentColor"/>
</g>
<a style="color:inherit;" xlink:href="textedit:///home/manu/projects/bebopshed/master/bebopshed/tmp/-:9:7:8">
</a>
<a style="color:inherit;" xlink:href="textedit:///home/manu/projects/bebopshed/master/bebopshed/tmp/-:10:6:7">
<g transform="translate(48.8015, 7.4367)">
<path transform="scale(0.0040, -0.0040)" d="M106 -135c-30 0 -53 5 -71 16c-23 12 -35 32 -35 62c0 42 23 83 71 127s93 65 136 65c82 0 122 -32 122 -92c0 -43 -27 -82 -81 -123c-50 -37 -97 -55 -142 -55z" fill="currentColor"/>
</g>
</a>
<g transform="translate(48.9015, 8.9367)">
<rect x="-0.1000" y="-1.3280" width="0.2000" height="4.5339" ry="0.0400" fill="currentColor"/>
</g>
<g transform="translate(47.5235, 7.4367)">
<path transform="scale(0.0040, -0.0040)" d="M148 77c0 17 -7 32 -22 32c-25 0 -47 -39 -60 -62c-10 -17 -17 -29 -18 -37v-112c0 -6 -1 -6 0 -6s3 -1 6 2c9 8 18 23 27 33c39 46 58 91 65 134c1 7 2 11 2 16zM174 230c44 0 58 -43 58 -95c0 -10 0 -23 -2 -35c-12 -90 -56 -183 -137 -288c-15 -17 -36 -44 -58 -69
s-33 -39 -35 -39c-1 0 -2 4 -2 6c0 12 1 49 2 140c1 85 4 220 4 406l2 278c14 15 25 24 53 25v-52c-3 -163 -4 -270 -4 -318c0 -21 -1 -33 0 -33s8 7 11 14c21 33 60 60 108 60z" fill="currentColor"/>
</g>
<a style="color:inherit;" xlink:href="textedit:///home/manu/projects/bebopshed/master/bebopshed/tmp/-:10:9:10">
<g transform="translate(51.0924, 7.9367)">
<path transform="scale(0.0040, -0.0040)" d="M106 -135c-30 0 -53 5 -71 16c-23 12 -35 32 -35 62c0 42 23 83 71 127s93 65 136 65c82 0 122 -32 122 -92c0 -43 -27 -82 -81 -123c-50 -37 -97 -55 -142 -55z" fill="currentColor"/>
</g>
</a>
<g transform="translate(51.1924, 8.9367)">
<rect x="-0.1000" y="-0.8280" width="0.2000" height="4.1859" ry="0.0400" fill="currentColor"/>
</g>
<a style="color:inherit;" xlink:href="textedit:///home/manu/projects/bebopshed/master/bebopshed/tmp/-:10:18:19">
<g transform="translate(59.5000, 9.9367)">
<path transform="scale(0.0040, -0.0040)" d="M106 -135c-30 0 -53 5 -71 16c-23 12 -35 32 -35 62c0 42 23 83 71 127s93 65 136 65c82 0 122 -32 122 -92c0 -43 -27 -82 -81 -123c-50 -37 -97 -55 -142 -55z" fill="currentColor"/>
</g>
</a>
<a style="color:inherit;" xlink:href="textedit:///home/manu/projects/bebopshed/master/bebopshed/tmp/-:10:13:14">
<g transform="translate(53.1334, 8.9367)">
<path transform="scale(0.0040, -0.0040)" d="M106 -135c-30 0 -53 5 -71 16c-23 12 -35 32 -35 62c0 42 23 83 71 127s93 65 136 65c82 0 122 -32 122 -92c0 -43 -27 -82 -81 -123c-50 -37 -97 -55 -142 -55z" fill="currentColor"/>
</g>
</a>
<g transform="translate(53.2334, 8.9367)">
<rect x="-0.1000" y="0.1720" width="0.2000" height="3.3214" ry="0.0400" fill="currentColor"/>
</g>
<a style="color:inherit;" xlink:href="textedit:///home/manu/projects/bebopshed/master/bebopshed/tmp/-:10:15:16">
<g transform="translate(55.4243, 8.4367)">
<path transform="scale(0.0040, -0.0040)" d="M106 -135c-30 0 -53 5 -71 16c-23 12 -35 32 -35 62c0 42 23 83 71 127s93 65 136 65c82 0 122 -32 122 -92c0 -43 -27 -82 -81 -123c-50 -37 -97 -55 -142 -55z" fill="currentColor"/>
</g>
</a>
<g transform="translate(55.5243, 8.9367)">
<rect x="-0.1000" y="-0.3280" width="0.2000" height="3.3280" ry="0.0400" fill="currentColor"/>
</g>
<a style="color:inherit;" xlink:href="textedit:///home/manu/projects/bebopshed/master/bebopshed/tmp/-:11:15:16">
<g transform="translate(80.9495, 11.9367)">
<path transform="scale(0.0040, -0.0040)" d="M106 -135c-30 0 -53 5 -71 16c-23 12 -35 32 -35 62c0 42 23 83 71 127s93 65 136 65c82 0 122 -32 122 -92c0 -43 -27 -82 -81 -123c-50 -37 -97 -55 -142 -55z" fill="currentColor"/>
</g>
</a>
<g transform="translate(82.1655, 8.9367)">
<rect x="-0.1000" y="-0.5000" width="0.2000" height="3.3280" ry="0.0400" fill="currentColor"/>
</g>
<g transform="translate(82.2655, 8.4767)">
<path transform="scale(0.0040, -0.0040)" d="M-16 0h16c30 0 93 -72 134 -131c34 -51 38 -49 63 -129c34 -111 37 -158 37 -194v-20c0 -29 -2 -48 -4 -73c-10 -99 -38 -188 -84 -265l-13 -22h-10c-12 0 -22 4 -22 12c0 4 4 13 12 27c41 75 65 145 72 210c2 19 3 35 3 50c0 120 -128 234 -163 270
c-20 21 -41 46 -41 78v54v133z" fill="currentColor"/>
</g>
<g transform="translate(67.1478, 5.9367)">
<polygon stroke-linejoin="round" stroke-linecap="round" stroke-width="0.0800" fill="currentColor" stroke="currentColor" points="7.0328 -0.0100 7.0328 0.3900 0.0400 0.2000 0.0400 -0.2000"/>
</g>
<g transform="translate(67.1478, 6.7467)">
<polygon stroke-linejoin="round" stroke-linecap="round" stroke-width="0.0800" fill="currentColor" stroke="currentColor" points="7.0328 -0.0100 7.0328 0.3900 0.0400 0.2000 0.0400 -0.2000"/>
</g>
<g transform="translate(60.6160, 6.1267)">
<polygon stroke-linejoin="round" stroke-linecap="round" stroke-width="0.0800" fill="currentColor" stroke="currentColor" points="3.4259 -0.8900 3.4259 -0.4900 0.0400 0.2000 0.0400 -0.2000"/>
</g>
<g transform="translate(45.7995, 11.1267)">
<polygon stroke-linejoin="round" stroke-linecap="round" stroke-width="0.0800" fill="currentColor" stroke="currentColor" points="7.4939 0.3000 7.4939 0.7000 0.0400 0.2000 0.0400 -0.2000"/>
</g>
<g transform="translate(45.7995, 11.9367)">
<polygon stroke-linejoin="round" stroke-linecap="round" stroke-width="0.0800" fill="currentColor" stroke="currentColor" points="7.4939 0.3000 7.4939 0.7000 0.0400 0.2000 0.0400 -0.2000"/>
</g>
<g transform="translate(30.6876, 11.1267)">
<polygon stroke-linejoin="round" stroke-linecap="round" stroke-width="0.0800" fill="currentColor" stroke="currentColor" points="9.9577 -0.5800 9.9577 -0.1800 0.0400 0.2000 0.0400 -0.2000"/>
</g>
<g transform="translate(23.2218, 6.1267)">
<polygon stroke-linejoin="round" stroke-linecap="round" stroke-width="0.0800" fill="currentColor" stroke="currentColor" points="6.0240 -0.3900 6.0240 0.0100 0.0400 0.2000 0.0400 -0.2000"/>
</g>
<a style="color:inherit;" xlink:href="textedit:///home/manu/projects/bebopshed/master/bebopshed/tmp/-:9:7:8">
<g transform="translate(25.9294, 5.4020)">
<text font-family="lilyjazz-text" font-style="italic" font-size="1.7461" text-anchor="start" fill="currentColor">
<tspan>3</tspan>
</text>
</g>
</a>
<g transform="translate(71.8297, 8.9367)">
<rect x="-0.1000" y="-2.8742" width="0.2000" height="3.2022" ry="0.0400" fill="currentColor"/>
</g>
<a style="color:inherit;" xlink:href="textedit:///home/manu/projects/bebopshed/master/bebopshed/tmp/-:10:36:37">
<g transform="translate(72.9047, 9.9367)">
<path transform="scale(0.0040, -0.0040)" d="M106 -135c-30 0 -53 5 -71 16c-23 12 -35 32 -35 62c0 42 23 83 71 127s93 65 136 65c82 0 122 -32 122 -92c0 -43 -27 -82 -81 -123c-50 -37 -97 -55 -142 -55z" fill="currentColor"/>
</g>
</a>
<g transform="translate(74.1207, 8.9367)">
<rect x="-0.1000" y="-2.8127" width="0.2000" height="3.6407" ry="0.0400" fill="currentColor"/>
</g>
<a style="color:inherit;" xlink:href="textedit:///home/manu/projects/bebopshed/master/bebopshed/tmp/-:6:13:14">
<g transform="translate(77.6836, 4.7007)">
<text font-family="lilyjazz-chord" font-size="2.6163" text-anchor="start" fill="currentColor">
<tspan>A</tspan>
</text>
</g>
<g transform="translate(79.7322, 4.7007)">
<text font-family="lilyjazz-chord" font-size="2.6163" text-anchor="start" fill="currentColor">
<tspan>></tspan>
</text>
</g>
<g transform="translate(80.7906, 3.5115)">
<text font-family="lilyjazz-chord" font-size="1.8500" text-anchor="start" fill="currentColor">
<tspan>M</tspan>
</text>
</g>
<g transform="translate(82.6002, 3.5115)">
<text font-family="lilyjazz-chord" font-size="1.8500" text-anchor="start" fill="currentColor">
<tspan>7</tspan>
</text>
</g>
</a>
<a style="color:inherit;" xlink:href="textedit:///home/manu/projects/bebopshed/master/bebopshed/tmp/-:11:11:12">
<g transform="translate(77.6836, 9.4367)">
<path transform="scale(0.0040, -0.0040)" d="M106 -135c-30 0 -53 5 -71 16c-23 12 -35 32 -35 62c0 42 23 83 71 127s93 65 136 65c82 0 122 -32 122 -92c0 -43 -27 -82 -81 -123c-50 -37 -97 -55 -142 -55z" fill="currentColor"/>
</g>
</a>
<a style="color:inherit;" xlink:href="textedit:///home/manu/projects/bebopshed/master/bebopshed/tmp/-:10:34:35">
<g transform="translate(70.6137, 9.4367)">
<path transform="scale(0.0040, -0.0040)" d="M106 -135c-30 0 -53 5 -71 16c-23 12 -35 32 -35 62c0 42 23 83 71 127s93 65 136 65c82 0 122 -32 122 -92c0 -43 -27 -82 -81 -123c-50 -37 -97 -55 -142 -55z" fill="currentColor"/>
</g>
</a>
<g transform="translate(78.8996, 8.9367)">
<rect x="-0.1000" y="-3.0000" width="0.2000" height="3.3280" ry="0.0400" fill="currentColor"/>
</g>
<g transform="translate(78.9996, 5.9767)">
<path transform="scale(0.0040, -0.0040)" d="M-16 0h16c30 0 93 -72 134 -131c34 -51 38 -49 63 -129c34 -111 37 -158 37 -194v-20c0 -29 -2 -48 -4 -73c-10 -99 -38 -188 -84 -265l-13 -22h-10c-12 0 -22 4 -22 12c0 4 4 13 12 27c41 75 65 145 72 210c2 19 3 35 3 50c0 120 -128 234 -163 270
c-20 21 -41 46 -41 78v54v133z" fill="currentColor"/>
</g>
<g transform="translate(76.4056, 9.4367)">
<path transform="scale(0.0040, -0.0040)" d="M148 77c0 17 -7 32 -22 32c-25 0 -47 -39 -60 -62c-10 -17 -17 -29 -18 -37v-112c0 -6 -1 -6 0 -6s3 -1 6 2c9 8 18 23 27 33c39 46 58 91 65 134c1 7 2 11 2 16zM174 230c44 0 58 -43 58 -95c0 -10 0 -23 -2 -35c-12 -90 -56 -183 -137 -288c-15 -17 -36 -44 -58 -69
s-33 -39 -35 -39c-1 0 -2 4 -2 6c0 12 1 49 2 140c1 85 4 220 4 406l2 278c14 15 25 24 53 25v-52c-3 -163 -4 -270 -4 -318c0 -21 -1 -33 0 -33s8 7 11 14c21 33 60 60 108 60z" fill="currentColor"/>
</g>
<a style="color:inherit;" xlink:href="textedit:///home/manu/projects/bebopshed/master/bebopshed/tmp/-:9:29:30">
<g transform="translate(27.9698, 8.9367)">
<path transform="scale(0.0040, -0.0040)" d="M106 -135c-30 0 -53 5 -71 16c-23 12 -35 32 -35 62c0 42 23 83 71 127s93 65 136 65c82 0 122 -32 122 -92c0 -43 -27 -82 -81 -123c-50 -37 -97 -55 -142 -55z" fill="currentColor"/>
</g>
</a>
<g transform="translate(20.8278, 9.4367)">
<path transform="scale(0.0040, -0.0040)" d="M148 77c0 17 -7 32 -22 32c-25 0 -47 -39 -60 -62c-10 -17 -17 -29 -18 -37v-112c0 -6 -1 -6 0 -6s3 -1 6 2c9 8 18 23 27 33c39 46 58 91 65 134c1 7 2 11 2 16zM174 230c44 0 58 -43 58 -95c0 -10 0 -23 -2 -35c-12 -90 -56 -183 -137 -288c-15 -17 -36 -44 -58 -69
s-33 -39 -35 -39c-1 0 -2 4 -2 6c0 12 1 49 2 140c1 85 4 220 4 406l2 278c14 15 25 24 53 25v-52c-3 -163 -4 -270 -4 -318c0 -21 -1 -33 0 -33s8 7 11 14c21 33 60 60 108 60z" fill="currentColor"/>
</g>
<a style="color:inherit;" xlink:href="textedit:///home/manu/projects/bebopshed/master/bebopshed/tmp/-:9:24:25">
<g transform="translate(25.1078, 8.9367)">
<path transform="scale(0.0040, -0.0040)" d="M106 -135c-30 0 -53 5 -71 16c-23 12 -35 32 -35 62c0 42 23 83 71 127s93 65 136 65c82 0 122 -32 122 -92c0 -43 -27 -82 -81 -123c-50 -37 -97 -55 -142 -55z" fill="currentColor"/>
</g>
</a>
<g transform="translate(26.3238, 8.9367)">
<rect x="-0.1000" y="-2.9072" width="0.2000" height="2.7352" ry="0.0400" fill="currentColor"/>
</g>
<g transform="translate(23.8298, 8.9367)">
<path transform="scale(0.0040, -0.0040)" d="M148 77c0 17 -7 32 -22 32c-25 0 -47 -39 -60 -62c-10 -17 -17 -29 -18 -37v-112c0 -6 -1 -6 0 -6s3 -1 6 2c9 8 18 23 27 33c39 46 58 91 65 134c1 7 2 11 2 16zM174 230c44 0 58 -43 58 -95c0 -10 0 -23 -2 -35c-12 -90 -56 -183 -137 -288c-15 -17 -36 -44 -58 -69
s-33 -39 -35 -39c-1 0 -2 4 -2 6c0 12 1 49 2 140c1 85 4 220 4 406l2 278c14 15 25 24 53 25v-52c-3 -163 -4 -270 -4 -318c0 -21 -1 -33 0 -33s8 7 11 14c21 33 60 60 108 60z" fill="currentColor"/>
</g>
<g transform="translate(29.1858, 8.9367)">
<rect x="-0.1000" y="-2.9969" width="0.2000" height="2.8249" ry="0.0400" fill="currentColor"/>
</g>
<g transform="translate(26.8358, 8.9367)">
<path transform="scale(0.0040, -0.0040)" d="M51 -58c0 -2 2 -2 4 -2c22 0 66 21 76 34l8 9v23c1 17 5 35 5 52c0 13 -2 9 -15 4c-25 -9 -48 -23 -65 -40l-9 -8l-2 -35c-1 -18 -2 -34 -2 -37zM37 538c0 9 20 13 30 13c3 0 9 -1 9 -3s0 -25 -2 -72c-2 -53 -11 -248 -13 -295v-16l10 8c17 16 84 43 112 48
c8 1 11 2 13 2s2 0 2 -2c0 -10 -2 -86 -10 -233c-10 -215 -18 -362 -27 -516c-1 -15 -5 -25 -8 -27c-9 -8 -17 -10 -25 -10c-2 0 -8 1 -10 1v11c0 9 3 23 4 46c13 215 17 335 17 358v1c-2 0 -4 -6 -6 -8c-23 -26 -77 -53 -110 -53c-17 0 -26 3 -26 6c0 1 1 54 8 159
c10 204 15 265 25 455c3 83 7 125 7 127z" fill="currentColor"/>
</g>
<g transform="translate(30.7876, 8.9367)">
<rect x="-0.1000" y="-0.3280" width="0.2000" height="2.5142" ry="0.0400" fill="currentColor"/>
</g>
<a style="color:inherit;" xlink:href="textedit:///home/manu/projects/bebopshed/master/bebopshed/tmp/-:6:0:1">
<g transform="translate(15.0179, 4.7007)">
<text font-family="lilyjazz-chord" font-size="2.6163" text-anchor="start" fill="currentColor">
<tspan>B</tspan>
</text>
</g>
<g transform="translate(16.7933, 4.7007)">
<text font-family="lilyjazz-chord" font-size="2.6163" text-anchor="start" fill="currentColor">
<tspan>></tspan>
</text>
</g>
<g transform="translate(17.8518, 4.7007)">
<text font-family="lilyjazz-chord" font-size="1.9600" text-anchor="start" fill="currentColor">
<tspan>m</tspan>
</text>
</g>
<g transform="translate(19.5248, 3.5115)">
<text font-family="lilyjazz-chord" font-size="1.8500" text-anchor="start" fill="currentColor">
<tspan>7</tspan>
</text>
</g>
</a>
<a style="color:inherit;" xlink:href="textedit:///home/manu/projects/bebopshed/master/bebopshed/tmp/-:9:0:1">
<g transform="translate(15.0179, 8.9367)">
<path transform="scale(0.0040, -0.0040)" d="M0 112c0 58 50 175 94 175c8 0 11 -3 11 -12c0 -14 -17 -64 -17 -82c0 -21 12 -28 32 -28c8 0 16.9003 1.35485 27 4c42 11 100.385 49.6758 130 76c9 8 16 11 26 11c14 0 22 -7 22 -21c0 -9 -4.29939 -20.8543 -11 -35c-9 -19 -28.6758 -53.2049 -61 -104
c-42 -66 -70.4343 -115.444 -83 -150c-4 -11 -7 -19 -7 -25c0 -8 2.99052 -15.7381 12 -27c4 -5 6 -10 6 -16c0 -5 -1.81288 -10.079 -4 -15c-8 -18 -48 -72 -72 -72c-16 0 -20 10 -20 29c0 11 1.29815 19.8944 4 28c8 24 29.4484 71.7933 62 143c16 35 24 53 24 55
c-3 0 -16.1081 -1.42162 -39 -6c-30 -6 -52 -9 -67 -9c-46 0 -69 35 -69 81z" fill="currentColor"/>
</g>
</a>
<g transform="translate(5.9215, 9.9367)">
<path transform="scale(0.0040, -0.0040)" d="M370 -27c-5 48 -9 73 -9 73c-1 0 -7 -6 -18 -19c-39 -48 -70 -89 -93 -150c-9 -23 -13 -43 -13 -59l-1 -13l17 -3c5 -1 11 0 18 0c19 0 46 3 80 10c24 5 36 6 36 8s-1 16 -4 42s-8 63 -13 111zM635 127c-9 16 -37 36 -70 36c-41 0 -119 -40 -143 -62
c-14 -13 -15 -16 -15 -39c0 -35 13 -166 15 -200c1 -13 3 -20 5 -20c7 0 20 9 43 25c27 19 56 49 88 88c50 64 78 113 78 159c0 7 1 10 -1 13zM332 213c0 1 -32 366 -34 368c-3 0 -12 -26 -14 -31c-129 -294 -202 -486 -214 -578c-1 -9 -2 -17 -2 -25c0 -52 23 -93 58 -113
c3 -2 42 -20 47 -20c1 0 1 11 2 31c5 83 33 154 67 218c13 24 33 57 62 98l28 42v10zM298 1107c-10.2857 0 -11.0204 -10.2857 -11.0204 -25.8192c0 -2.58892 0.0204082 -5.32362 0.0204082 -8.18076c0 -50 6 -99 11 -146c7 -52 10 -78 12 -80c2 0 8 19 9 22
c24 78 35 130 35 160c0 8 0 16 -2 20c-12 29 -27 47 -43 55c-4 2 -7 3 -11 3zM212 1307c0 15 14 38 30 38c13 0 19 -3 33 -11c94 -57 148 -163 148 -312c0 -79 -23 -174 -68 -287l-16 -45l2 -42c9 -164 20 -294 34 -389l2 -21l13 12c46 43 95 69 147 77c5 1 14 2 22 2
c76 0 122 -38 142 -118c7 -27 10 -58 10 -90c0 -19 -3 -39 -5 -60c-9 -78 -20 -137 -34 -180c-21 -65 -82 -158 -138 -196c-8 -5 -47 -33 -58 -43c-3 -2 -3 -5 -3 -7v-1c8 -32 19 -103 19 -153c0 -96 -24 -203 -48 -253c-7 -14 -16 -26 -26 -34c-8 -5 -15 -8 -20 -8
c-23 0 -31 40 -35 103l-1 21l12 20c30 53 60 135 60 206c0 19 -1 38 -5 56c-3 13 -5 21 -15 21c-8 0 -15 -1 -25 -3c-22 -5 -44 -8 -69 -8c-156 0 -249 63 -295 191c-16 48 -25 99 -25 156c0 44 5 91 15 141c22 106 81 272 175 501c48 116 75 184 80 200l4 13l-32 248
c-21 164 -30 251 -30 255z" fill="currentColor"/>
</g>
<g transform="translate(10.1215, 8.9367)">
<path transform="scale(0.0040, -0.0040)" d="M396 636c4 2 16 2 35 2s34 -1 44 -3c37 -6 70 -19 100 -39c28 -18 52 -43 73 -74c45 -67 70 -149 75 -247c0.763932 -10.695 1.09017 -21.3901 1.09017 -32.1409c0 -17.3951 -0.854102 -34.9361 -2.09017 -52.8591l-4 -43l-25 -103c-25 -100 -48 -180 -68 -241
c-39 -117 -88 -232 -146 -345c-42 -82 -65 -125 -70 -128c-1 -1 -3 -3 -5 -7c-5 -10 -9 -7 -11 9c0 3 -1 6 -1 9c-0.18034 2.97561 -0.271243 6.04065 -0.271243 9.19513c0 31.8293 9.25498 72.7642 29.2712 122.805c5 12 20 46 45 100c48 103 82 181 102 237
c39.027 110.405 58.5405 211.845 58.5405 304.455c0 87.7353 -17.5135 167.545 -52.5405 239.545c-27 55 -59 94 -97 117c-23.6948 14.2169 -51.1325 21.5717 -80.8351 21.5717c-7.90389 0 -15.9682 -0.520793 -24.1649 -1.57166c-16 -2 -25 -3 -28 -1s-5 8 -5 18
c0 22 4 44 11 67c10 33 26 53 46 61zM180 328c7.60745 2.01374 14.7643 3.0262 21.4818 3.0262c23.3051 0 41.3219 -12.1862 54.5182 -37.0262c9 -17 15 -40 21 -70c2 -11 4 -30 4 -57s-1 -45 -3 -55c-3 -17 -11 -35 -25 -53l-8 -11h-11h-11l-3 32c-4 36 -9 61 -15 77
c-8 22 -19 33 -32 33c-7 0 -20 -9 -39 -26c-18 -16 -33 -38 -46 -65c-19 -40 -29 -81 -29 -123c0 -64 19 -102 57 -115c14.4906 -5.14181 29.4181 -7.66165 44.9869 -7.66165c17.7379 0 36.3083 3.2709 56.0131 9.66165c27 9 62 37 106 83l40 42h12h12l4 -14
c6.125 -21 9.1875 -38.1719 9.1875 -52.8555c0 -2.09766 -0.0625 -4.14453 -0.1875 -6.14453c-1 -33 -18 -66 -50 -100c-48 -50 -99 -84 -152 -101c-18.6429 -5.78571 -37.2857 -8.67857 -56.1942 -8.67857c-10.5047 0 -21.0915 0.892857 -31.8058 2.67857
c-30 5 -53 16 -70 33c-18 18 -31 48 -38 90c-2 10 -2 33 -2 67s0 58 2 72c6 52 15 96 26 134c20 68 42 119 65 155c25 37 53 60 87 69z" fill="currentColor"/>
</g>
<a style="color:inherit;" xlink:href="textedit:///home/manu/projects/bebopshed/master/bebopshed/tmp/-:9:33:34">
<g transform="translate(30.6876, 8.4367)">
<path transform="scale(0.0040, -0.0040)" d="M106 -135c-30 0 -53 5 -71 16c-23 12 -35 32 -35 62c0 42 23 83 71 127s93 65 136 65c82 0 122 -32 122 -92c0 -43 -27 -82 -81 -123c-50 -37 -97 -55 -142 -55z" fill="currentColor"/>
</g>
</a>
<a style="color:inherit;" xlink:href="textedit:///home/manu/projects/bebopshed/master/bebopshed/tmp/-:9:3:4">
<g transform="translate(18.2678, 10.4367)">
<path transform="scale(0.0040, -0.0040)" d="M106 -135c-30 0 -53 5 -71 16c-23 12 -35 32 -35 62c0 42 23 83 71 127s93 65 136 65c82 0 122 -32 122 -92c0 -43 -27 -82 -81 -123c-50 -37 -97 -55 -142 -55z" fill="currentColor"/>
</g>
</a>
<g transform="translate(19.4838, 8.9367)">
<rect x="-0.1000" y="-2.0000" width="0.2000" height="3.3280" ry="0.0400" fill="currentColor"/>
</g>
<g transform="translate(19.5838, 6.9767)">
<path transform="scale(0.0040, -0.0040)" d="M-16 0h16c30 0 93 -72 134 -131c34 -51 38 -49 63 -129c34 -111 37 -158 37 -194v-20c0 -29 -2 -48 -4 -73c-10 -99 -38 -188 -84 -265l-13 -22h-10c-12 0 -22 4 -22 12c0 4 4 13 12 27c41 75 65 145 72 210c2 19 3 35 3 50c0 120 -128 234 -163 270
c-20 21 -41 46 -41 78v54v133z" fill="currentColor"/>
</g>
<a style="color:inherit;" xlink:href="textedit:///home/manu/projects/bebopshed/master/bebopshed/tmp/-:9:20:21">
<g transform="translate(22.1058, 9.4367)">
<path transform="scale(0.0040, -0.0040)" d="M106 -135c-30 0 -53 5 -71 16c-23 12 -35 32 -35 62c0 42 23 83 71 127s93 65 136 65c82 0 122 -32 122 -92c0 -43 -27 -82 -81 -123c-50 -37 -97 -55 -142 -55z" fill="currentColor"/>
</g>
</a>
<g transform="translate(23.3218, 8.9367)">
<rect x="-0.1000" y="-2.8131" width="0.2000" height="3.1411" ry="0.0400" fill="currentColor"/>
</g>
<g transform="translate(44.5215, 7.9367)">
<path transform="scale(0.0040, -0.0040)" d="M148 77c0 17 -7 32 -22 32c-25 0 -47 -39 -60 -62c-10 -17 -17 -29 -18 -37v-112c0 -6 -1 -6 0 -6s3 -1 6 2c9 8 18 23 27 33c39 46 58 91 65 134c1 7 2 11 2 16zM174 230c44 0 58 -43 58 -95c0 -10 0 -23 -2 -35c-12 -90 -56 -183 -137 -288c-15 -17 -36 -44 -58 -69
s-33 -39 -35 -39c-1 0 -2 4 -2 6c0 12 1 49 2 140c1 85 4 220 4 406l2 278c14 15 25 24 53 25v-52c-3 -163 -4 -270 -4 -318c0 -21 -1 -33 0 -33s8 7 11 14c21 33 60 60 108 60z" fill="currentColor"/>
</g>
<g transform="translate(36.0854, 7.9367)">
<path transform="scale(0.0040, -0.0040)" d="M51 -58c0 -2 2 -2 4 -2c22 0 66 21 76 34l8 9v23c1 17 5 35 5 52c0 13 -2 9 -15 4c-25 -9 -48 -23 -65 -40l-9 -8l-2 -35c-1 -18 -2 -34 -2 -37zM37 538c0 9 20 13 30 13c3 0 9 -1 9 -3s0 -25 -2 -72c-2 -53 -11 -248 -13 -295v-16l10 8c17 16 84 43 112 48
c8 1 11 2 13 2s2 0 2 -2c0 -10 -2 -86 -10 -233c-10 -215 -18 -362 -27 -516c-1 -15 -5 -25 -8 -27c-9 -8 -17 -10 -25 -10c-2 0 -8 1 -10 1v11c0 9 3 23 4 46c13 215 17 335 17 358v1c-2 0 -4 -6 -6 -8c-23 -26 -77 -53 -110 -53c-17 0 -26 3 -26 6c0 1 1 54 8 159
c10 204 15 265 25 455c3 83 7 125 7 127z" fill="currentColor"/>
</g>
<a style="color:inherit;" xlink:href="textedit:///home/manu/projects/bebopshed/master/bebopshed/tmp/-:9:42:43">
<g transform="translate(40.4853, 7.4367)">
<path transform="scale(0.0040, -0.0040)" d="M106 -135c-30 0 -53 5 -71 16c-23 12 -35 32 -35 62c0 42 23 83 71 127s93 65 136 65c82 0 122 -32 122 -92c0 -43 -27 -82 -81 -123c-50 -37 -97 -55 -142 -55z" fill="currentColor"/>
</g>
</a>
<g transform="translate(40.5853, 8.9367)">
<rect x="-0.1000" y="-1.3280" width="0.2000" height="3.1418" ry="0.0400" fill="currentColor"/>
</g>
<a style="color:inherit;" xlink:href="textedit:///home/manu/projects/bebopshed/master/bebopshed/tmp/-:6:8:9">
<g transform="translate(45.7995, 4.7007)">
<text font-family="lilyjazz-chord" font-size="2.6163" text-anchor="start" fill="currentColor">
<tspan>E</tspan>
</text>
</g>
<g transform="translate(47.5749, 4.7007)">
<text font-family="lilyjazz-chord" font-size="2.6163" text-anchor="start" fill="currentColor">
<tspan>></tspan>
</text>
</g>
<g transform="translate(48.6334, 3.5115)">
<text font-family="lilyjazz-chord" font-size="1.8500" text-anchor="start" fill="currentColor">
<tspan>7</tspan>
</text>
</g>
</a>
<g transform="translate(39.2073, 7.4367)">
<path transform="scale(0.0040, -0.0040)" d="M148 77c0 17 -7 32 -22 32c-25 0 -47 -39 -60 -62c-10 -17 -17 -29 -18 -37v-112c0 -6 -1 -6 0 -6s3 -1 6 2c9 8 18 23 27 33c39 46 58 91 65 134c1 7 2 11 2 16zM174 230c44 0 58 -43 58 -95c0 -10 0 -23 -2 -35c-12 -90 -56 -183 -137 -288c-15 -17 -36 -44 -58 -69
s-33 -39 -35 -39c-1 0 -2 4 -2 6c0 12 1 49 2 140c1 85 4 220 4 406l2 278c14 15 25 24 53 25v-52c-3 -163 -4 -270 -4 -318c0 -21 -1 -33 0 -33s8 7 11 14c21 33 60 60 108 60z" fill="currentColor"/>
</g>
<a style="color:inherit;" xlink:href="textedit:///home/manu/projects/bebopshed/master/bebopshed/tmp/-:9:36:37">
<g transform="translate(33.9535, 7.9367)">
<path transform="scale(0.0040, -0.0040)" d="M106 -135c-30 0 -53 5 -71 16c-23 12 -35 32 -35 62c0 42 23 83 71 127s93 65 136 65c82 0 122 -32 122 -92c0 -43 -27 -82 -81 -123c-50 -37 -97 -55 -142 -55z" fill="currentColor"/>
</g>
</a>
<g transform="translate(34.0535, 8.9367)">
<rect x="-0.1000" y="-0.8280" width="0.2000" height="2.8901" ry="0.0400" fill="currentColor"/>
</g>
<g transform="translate(32.6755, 7.9367)">
<path transform="scale(0.0040, -0.0040)" d="M148 77c0 17 -7 32 -22 32c-25 0 -47 -39 -60 -62c-10 -17 -17 -29 -18 -37v-112c0 -6 -1 -6 0 -6s3 -1 6 2c9 8 18 23 27 33c39 46 58 91 65 134c1 7 2 11 2 16zM174 230c44 0 58 -43 58 -95c0 -10 0 -23 -2 -35c-12 -90 -56 -183 -137 -288c-15 -17 -36 -44 -58 -69
s-33 -39 -35 -39c-1 0 -2 4 -2 6c0 12 1 49 2 140c1 85 4 220 4 406l2 278c14 15 25 24 53 25v-52c-3 -163 -4 -270 -4 -318c0 -21 -1 -33 0 -33s8 7 11 14c21 33 60 60 108 60z" fill="currentColor"/>
</g>
<g transform="translate(45.8995, 8.9367)">
<rect x="-0.1000" y="-0.8280" width="0.2000" height="3.8346" ry="0.0400" fill="currentColor"/>
</g>
<a style="color:inherit;" xlink:href="textedit:///home/manu/projects/bebopshed/master/bebopshed/tmp/-:9:40:41">
<g transform="translate(37.2194, 7.9367)">
<path transform="scale(0.0040, -0.0040)" d="M106 -135c-30 0 -53 5 -71 16c-23 12 -35 32 -35 62c0 42 23 83 71 127s93 65 136 65c82 0 122 -32 122 -92c0 -43 -27 -82 -81 -123c-50 -37 -97 -55 -142 -55z" fill="currentColor"/>
</g>
</a>
<g transform="translate(37.3194, 8.9367)">
<rect x="-0.1000" y="-0.8280" width="0.2000" height="2.7659" ry="0.0400" fill="currentColor"/>
</g>
<a style="color:inherit;" xlink:href="textedit:///home/manu/projects/bebopshed/master/bebopshed/tmp/-:10:0:1">
<g transform="translate(45.7995, 7.9367)">
<path transform="scale(0.0040, -0.0040)" d="M106 -135c-30 0 -53 5 -71 16c-23 12 -35 32 -35 62c0 42 23 83 71 127s93 65 136 65c82 0 122 -32 122 -92c0 -43 -27 -82 -81 -123c-50 -37 -97 -55 -142 -55z" fill="currentColor"/>
</g>
</a>
<g transform="translate(45.3276, 19.4001)">
<text font-family="lilyjazz-text" font-size="2.2001" text-anchor="start" fill="currentColor">
<tspan>Created by Bebopshed</tspan>
</text>
</g>
</svg>
